<svg width="251" height="100" viewBox="0 0 251 100" fill="none" xmlns="http://www.w3.org/2000/svg">
<path fill-rule="evenodd" clip-rule="evenodd" d="M0.361496 70.8183V71.5996C0.4266 71.8275 0.573085 71.9902 0.800949 72.0879C0.996262 72.1855 1.22413 72.2506 1.48454 72.2832C1.74496 72.3483 2.02165 72.4134 2.31462 72.4785C2.57504 72.5436 2.81918 72.6901 3.04704 72.918C3.27491 73.1458 3.45394 73.3737 3.58415 73.6016L3.87712 74.2851C3.97478 74.513 4.08871 74.7083 4.21892 74.8711C4.34913 75.0664 4.52816 75.2129 4.75603 75.3105C5.01644 75.4407 5.27686 75.5221 5.53728 75.5547C5.76514 75.6198 6.02556 75.6686 6.31853 75.7012C6.57894 75.7337 6.88819 75.7825 7.24626 75.8476C7.57178 75.9453 7.97868 76.0918 8.46696 76.2871C8.72738 76.4173 8.97152 76.515 9.19939 76.5801C9.3947 76.6777 9.57373 76.7266 9.7365 76.7266C10.5828 76.7266 11.0549 75.9127 11.1525 74.2851C11.1851 73.7318 11.1362 72.8691 11.006 71.6973C10.8758 70.5579 10.8107 69.1094 10.8107 67.3516C10.8107 64.5195 10.9409 61.8503 11.2013 59.3437C11.4292 56.8372 11.6896 54.64 11.9826 52.7519C12.3407 50.5059 12.7313 48.4551 13.1545 46.5996C14.0008 43.084 14.9937 39.666 16.133 36.3457C17.2723 33.0579 18.493 29.9655 19.7951 27.0684C21.0646 24.1712 22.3993 21.5182 23.799 19.1094C25.1987 16.7005 26.5985 14.6335 27.9982 12.9082C29.3654 11.2155 30.7 9.88085 32.0021 8.90429C33.3042 7.96028 34.5086 7.48828 35.6154 7.48828C36.0386 7.48828 36.3478 7.60221 36.5431 7.83007C36.7059 8.05794 36.7873 8.31835 36.7873 8.61132C36.7873 9.13216 36.771 9.97851 36.7384 11.1504C36.6733 12.3548 36.6082 13.8522 36.5431 15.6426C36.4455 17.4329 36.3804 19.5 36.3478 21.8437C36.2827 24.22 36.2502 26.8242 36.2502 29.6562C36.2502 35.5156 36.4455 42.2376 36.8361 49.8223C37.2267 57.4394 38.008 65.6914 39.1799 74.5781C39.2775 75.3268 39.5216 75.8639 39.9123 76.1894C40.3029 76.5475 40.8888 76.7266 41.6701 76.7266C42.1258 76.7266 42.6629 76.6777 43.2814 76.5801C46.7645 76.0918 50.0522 75.0989 53.1447 73.6016C56.2371 72.1042 58.9552 70.265 61.299 68.084C63.6102 65.9355 65.4494 63.5104 66.8166 60.8086C68.1512 58.1393 68.8185 55.3724 68.8185 52.5078C68.8185 50.3919 68.5581 48.5853 68.0373 47.0879C67.5164 45.5905 66.8654 44.321 66.0841 43.2793C65.2703 42.2376 64.3752 41.4075 63.3986 40.7891C62.422 40.1706 61.4943 39.6823 60.6154 39.3242C59.7039 38.9987 58.8901 38.7871 58.174 38.6894C57.4253 38.5918 56.8882 38.543 56.5627 38.543C55.0327 38.543 54.2677 38.8685 54.2677 39.5195C54.2677 39.7474 54.4468 40.0241 54.8049 40.3496C55.3908 40.903 56.0744 41.6191 56.8556 42.498C57.6043 43.4095 58.3368 44.4512 59.0529 45.623C59.7365 46.8275 60.3224 48.1621 60.8107 49.6269C61.2664 51.0918 61.4943 52.6868 61.4943 54.4121C61.4943 55.7142 61.299 57 60.9084 58.2695C60.5177 59.5391 59.8504 60.7109 58.9064 61.7851C57.9299 62.8919 56.644 63.8522 55.049 64.666C53.4539 65.4798 51.452 66.0983 49.0431 66.5215L48.506 66.5703C48.3107 66.5703 48.1968 66.5052 48.1642 66.375C48.0991 66.2773 48.034 66.082 47.9689 65.7891C46.5692 57.4232 45.6414 49.5944 45.1857 42.3027C44.6974 35.0436 44.4533 28.582 44.4533 22.918C44.4533 18.1654 44.5509 14.1615 44.7463 10.9062C44.909 7.68359 44.9904 5.38867 44.9904 4.02148C44.9904 3.69596 44.909 3.35416 44.7463 2.99609C44.5835 2.60546 44.3394 2.24739 44.0138 1.92187C43.6558 1.59635 43.2163 1.33593 42.6955 1.14062C42.1746 0.912755 41.5399 0.798824 40.7912 0.798824C39.7821 0.798824 38.6102 1.02669 37.2756 1.48242C35.9409 1.90559 34.3459 2.7194 32.4904 3.92382C29.0399 6.16992 26.0776 8.52994 23.6037 11.0039C21.0972 13.5104 18.9325 16.0169 17.1095 18.5234C15.2541 21.0299 13.6753 23.4876 12.3732 25.8965C11.0386 28.3053 9.83415 30.5677 8.75993 32.6836C6.80681 36.4596 5.27686 40.2031 4.17009 43.9141C3.03077 47.6575 2.18441 51.1569 1.63103 54.4121C1.04509 57.6999 0.687017 60.6295 0.556808 63.2012C0.394048 65.7728 0.312668 67.791 0.312668 69.2558C0.312668 69.9069 0.328944 70.4277 0.361496 70.8183ZM182.361 72.5996V71.8184C182.329 71.4277 182.313 70.9069 182.313 70.2559C182.313 68.791 182.394 66.7728 182.557 64.2012C182.687 61.6296 183.045 58.6999 183.631 55.4121C184.184 52.1569 185.031 48.6576 186.17 44.9141C187.277 41.2031 188.807 37.4596 190.76 33.6836C191.834 31.5677 193.039 29.3053 194.373 26.8965C195.675 24.4876 197.254 22.0299 199.11 19.5234C200.932 17.0169 203.097 14.5104 205.604 12.0039C208.078 9.52995 211.04 7.16992 214.49 4.92383C216.346 3.7194 217.941 2.9056 219.276 2.48242C220.61 2.02669 221.782 1.79883 222.791 1.79883C223.54 1.79883 224.175 1.91276 224.695 2.14063C225.216 2.33594 225.656 2.59636 226.014 2.92188C226.339 3.2474 226.583 3.60547 226.746 3.9961C226.909 4.35417 226.99 4.69597 226.99 5.02149C226.99 6.38867 226.909 8.6836 226.746 11.9063C226.551 15.1615 226.453 19.1654 226.453 23.918C226.453 29.582 226.697 36.0436 227.186 43.3027C227.641 50.5944 228.569 58.4232 229.969 66.7891C230.034 67.082 230.099 67.2773 230.164 67.375C230.197 67.5052 230.311 67.5703 230.506 67.5703L231.043 67.5215C233.452 67.0983 235.454 66.4798 237.049 65.666C238.644 64.8522 239.93 63.8919 240.906 62.7852C241.85 61.7109 242.518 60.5391 242.908 59.2695C243.299 58 243.494 56.7142 243.494 55.4121C243.494 53.6868 243.266 52.0918 242.811 50.627C242.322 49.1621 241.736 47.8275 241.053 46.623C240.337 45.4512 239.604 44.4095 238.856 43.498C238.074 42.6191 237.391 41.903 236.805 41.3496C236.447 41.0241 236.268 40.7474 236.268 40.5195C236.268 39.8685 237.033 39.543 238.563 39.543C238.888 39.543 239.425 39.5918 240.174 39.6895C240.89 39.7871 241.704 39.9987 242.615 40.3242C243.494 40.6823 244.422 41.1706 245.399 41.7891C246.375 42.4076 247.27 43.2376 248.084 44.2793C248.865 45.321 249.516 46.5905 250.037 48.0879C250.558 49.5853 250.819 51.3919 250.819 53.5078C250.819 56.3724 250.151 59.1393 248.817 61.8086C247.449 64.5104 245.61 66.9355 243.299 69.084C240.955 71.265 238.237 73.1042 235.145 74.6016C232.052 76.099 228.764 77.0918 225.281 77.5801C224.663 77.6777 224.126 77.7266 223.67 77.7266C222.889 77.7266 222.303 77.5475 221.912 77.1894C221.522 76.8639 221.278 76.3268 221.18 75.5781C220.008 66.6914 219.227 58.4395 218.836 50.8223C218.445 43.2376 218.25 36.5156 218.25 30.6562C218.25 27.8242 218.283 25.2201 218.348 22.8438C218.38 20.5 218.445 18.4329 218.543 16.6426C218.608 14.8522 218.673 13.3548 218.738 12.1504C218.771 10.9785 218.787 10.1322 218.787 9.61133C218.787 9.31836 218.706 9.05794 218.543 8.83008C218.348 8.60222 218.039 8.48828 217.615 8.48828C216.509 8.48828 215.304 8.96029 214.002 9.9043C212.7 10.8809 211.365 12.2155 209.998 13.9082C208.598 15.6335 207.199 17.7005 205.799 20.1094C204.399 22.5182 203.065 25.1712 201.795 28.0684C200.493 30.9655 199.272 34.0579 198.133 37.3457C196.994 40.666 196.001 44.084 195.154 47.5996C194.731 49.4551 194.341 51.5059 193.983 53.752C193.69 55.64 193.429 57.8372 193.201 60.3438C192.941 62.8503 192.811 65.5195 192.811 68.3516C192.811 70.1094 192.876 71.5579 193.006 72.6973C193.136 73.8691 193.185 74.7318 193.153 75.2852C193.055 76.9128 192.583 77.7266 191.736 77.7266C191.574 77.7266 191.395 77.6777 191.199 77.5801C190.972 77.515 190.727 77.4173 190.467 77.2871C189.979 77.0918 189.572 76.9453 189.246 76.8477C188.888 76.7826 188.579 76.7337 188.319 76.7012C188.026 76.6686 187.765 76.6198 187.537 76.5547C187.277 76.5221 187.016 76.4408 186.756 76.3105C186.528 76.2129 186.349 76.0664 186.219 75.8711C186.089 75.7083 185.975 75.513 185.877 75.2852L185.584 74.6016C185.454 74.3737 185.275 74.1458 185.047 73.918C184.819 73.6901 184.575 73.5436 184.315 73.4785C184.022 73.4134 183.745 73.3483 183.485 73.2832C183.224 73.2507 182.996 73.1855 182.801 73.0879C182.573 72.9902 182.427 72.8275 182.361 72.5996ZM100.355 7.62422C100.355 7.81954 100.338 8.29154 100.306 9.04024C100.273 9.78894 100.224 10.6678 100.159 11.677C100.127 12.6861 100.078 13.744 100.013 14.8508C99.9478 15.9576 99.899 16.9992 99.8664 17.9758C99.8664 18.2037 99.8339 18.9198 99.7687 20.1242C99.7036 21.2961 99.6223 22.7935 99.5246 24.6164C99.427 26.4393 99.313 28.5064 99.1828 30.8176C99.0526 33.1288 98.9224 35.5051 98.7922 37.9465L98.4016 45.2707C98.2714 47.6796 98.1411 49.9094 98.0109 51.9602C97.9133 53.9784 97.8156 55.7525 97.718 57.2824C97.6203 58.7798 97.5389 59.854 97.4738 60.5051C97.3762 61.7746 97.0832 63.3046 96.5949 65.0949C96.1392 66.8527 95.4068 68.6919 94.3977 70.6125C93.3885 72.5005 92.0539 74.3723 90.3937 76.2277C88.7336 78.0832 86.634 79.7271 84.0949 81.1594C83.9322 81.257 83.7369 81.3384 83.509 81.4035C83.3137 81.5012 83.1346 81.55 82.9719 81.55C82.5487 81.55 82.3371 81.371 82.3371 81.0129C82.3371 80.7199 82.5161 80.3781 82.8742 79.9875C84.0135 78.7831 84.9576 77.5624 85.7062 76.3254C86.4549 75.0884 87.0572 73.7212 87.5129 72.2238C87.9686 70.7264 88.3104 69.0175 88.5383 67.0969C88.7661 65.1763 88.9615 62.9139 89.1242 60.3098C89.3195 57.9986 89.5311 55.1177 89.759 51.6672C89.9543 48.7375 90.1822 45.0591 90.4426 40.632C90.703 36.205 90.9797 30.9315 91.2727 24.8117C91.3052 24.0305 91.3378 23.2004 91.3703 22.3215C91.4354 21.4426 91.4842 20.6125 91.5168 19.8313C91.5494 19.0175 91.5819 18.3013 91.6145 17.6828C91.647 17.0643 91.6633 16.6249 91.6633 16.3645C91.6633 16.0064 91.4842 15.8273 91.1262 15.8273C90.6053 15.8273 89.9055 15.9087 89.0266 16.0715C88.1802 16.2017 87.2525 16.4621 86.2434 16.8527C85.2668 17.2108 84.274 17.6828 83.2648 18.2688C82.2883 18.8547 81.3931 19.6034 80.5793 20.5148C79.7655 21.3938 79.0982 22.4354 78.5773 23.6398C78.0891 24.8117 77.8449 26.1789 77.8449 27.7414C77.8449 29.2714 78.024 30.6711 78.382 31.9406C78.7727 33.2102 79.2284 34.3658 79.7492 35.4074C80.3026 36.4491 80.9048 37.3931 81.5559 38.2395C82.2069 39.0533 82.7928 39.7694 83.3137 40.3879C83.8671 40.9738 84.3228 41.4784 84.6809 41.9016C85.0715 42.2922 85.2668 42.5852 85.2668 42.7805C85.2668 43.0734 85.104 43.3176 84.7785 43.5129C84.453 43.7082 83.8833 43.8059 83.0695 43.8059C81.3768 43.8059 79.7818 43.4315 78.2844 42.6828C76.787 41.9341 75.4849 40.925 74.3781 39.6555C73.2714 38.3534 72.3924 36.856 71.7414 35.1633C71.0904 33.4706 70.7648 31.6965 70.7648 29.841C70.7648 27.3996 71.2043 25.1047 72.0832 22.9563C72.9947 20.8078 74.1828 18.8384 75.6477 17.0481C77.1451 15.2577 78.854 13.6626 80.7746 12.2629C82.6952 10.8306 84.6646 9.62618 86.6828 8.64961C88.701 7.6405 90.6867 6.87553 92.6398 6.35469C94.6255 5.83386 96.4322 5.57344 98.0598 5.57344C98.9061 5.57344 99.4921 5.7362 99.8176 6.06172C100.176 6.35469 100.355 6.87553 100.355 7.62422ZM147.327 66.4133C147.327 63.093 147.425 59.9517 147.62 56.9895C147.816 53.9947 148.027 51.0975 148.255 48.2981C148.515 45.466 148.743 42.7154 148.939 40.0461C149.167 37.3443 149.28 34.6262 149.28 31.8918C149.28 29.4504 149.134 27.1392 148.841 24.9582C148.548 22.7447 148.027 20.8078 147.279 19.1477C146.53 17.4875 145.488 16.1691 144.154 15.1926C142.819 14.1835 141.126 13.6789 139.075 13.6789C137.122 13.6789 135.348 14.1835 133.753 15.1926C132.158 16.2017 130.726 17.5526 129.456 19.2453C128.219 20.938 127.129 22.8912 126.185 25.1047C125.273 27.3182 124.508 29.6294 123.89 32.0383C123.271 34.4471 122.799 36.8723 122.474 39.3137C122.148 41.7225 121.969 43.9849 121.937 46.1008C121.904 47.7284 121.872 49.2746 121.839 50.7395C121.807 52.2043 121.758 53.6203 121.693 54.9875C121.562 61.3677 121.237 66.4458 120.716 70.2219C120.195 73.9979 119.739 76.6509 119.349 78.1809C119.121 79.0598 118.747 79.662 118.226 79.9875C117.737 80.313 117.184 80.5083 116.566 80.5734C115.98 80.6385 115.377 80.6548 114.759 80.6223C114.173 80.6223 113.668 80.7199 113.245 80.9152C112.659 81.1757 112.073 81.3059 111.487 81.3059C110.934 81.3059 110.462 81.1594 110.071 80.8664C109.681 80.606 109.486 80.1503 109.486 79.4992C109.486 79.2714 109.502 79.076 109.534 78.9133C109.632 78.5552 109.779 77.7577 109.974 76.5207C110.202 75.3163 110.446 73.8514 110.706 72.1262C110.999 70.3684 111.292 68.4315 111.585 66.3156C111.911 64.1997 112.187 62.0676 112.415 59.9191C112.676 57.7382 112.887 55.6223 113.05 53.5715C113.213 51.5207 113.294 49.6652 113.294 48.0051C113.294 47.1262 113.278 45.8241 113.245 44.0988C113.245 42.3736 113.229 40.3879 113.196 38.1418C113.164 35.8632 113.099 33.4217 113.001 30.8176C112.936 28.2134 112.822 25.6255 112.659 23.0539C112.497 20.4497 112.301 17.9432 112.073 15.5344C111.846 13.093 111.569 10.912 111.243 8.99141C111.178 8.66589 111.357 8.32409 111.78 7.96602C112.204 7.60795 112.594 7.24987 112.952 6.8918C113.18 6.66394 113.359 6.4198 113.489 6.15938C113.652 5.89896 113.782 5.6711 113.88 5.47579C113.978 5.24792 114.075 5.06889 114.173 4.93868C114.303 4.77592 114.45 4.66198 114.612 4.59688C115.198 4.40157 115.622 4.27136 115.882 4.20625C116.175 4.14115 116.403 4.09232 116.566 4.05977C116.728 3.99467 116.875 3.94584 117.005 3.91329C117.135 3.84818 117.347 3.75053 117.64 3.62032C117.9 3.49011 118.144 3.37618 118.372 3.27852C118.6 3.18086 118.795 3.13204 118.958 3.13204C119.87 3.13204 120.325 4.05977 120.325 5.91524C120.39 7.34753 120.488 8.95886 120.618 10.7492C120.716 12.3117 120.814 14.1835 120.911 16.3645C121.042 18.5129 121.155 20.9706 121.253 23.7375C122.425 20.7427 123.727 18.2199 125.159 16.1691C126.624 14.0858 128.105 12.3768 129.603 11.0422C131.133 9.70756 132.614 8.68217 134.046 7.96602C135.511 7.24987 136.797 6.72904 137.904 6.40352C139.043 6.04545 139.954 5.85014 140.638 5.81758C141.321 5.75248 141.68 5.71993 141.712 5.71993C144.121 5.71993 146.221 6.06172 148.011 6.74532C149.801 7.39636 151.331 8.30782 152.601 9.47969C153.903 10.619 154.961 11.9699 155.775 13.5324C156.621 15.0949 157.272 16.7714 157.728 18.5617C158.216 20.3521 158.558 22.2238 158.753 24.177C158.948 26.1301 159.046 28.0669 159.046 29.9875C159.046 31.9081 158.981 33.7635 158.851 35.5539C158.721 37.3117 158.574 38.9556 158.411 40.4856C158.183 42.634 157.972 44.6848 157.777 46.6379C157.581 48.591 157.402 50.5116 157.239 52.3996C157.109 54.2876 156.995 56.1757 156.898 58.0637C156.8 59.9191 156.751 61.8397 156.751 63.8254C156.751 68.0246 156.946 71.8169 157.337 75.2024C157.728 78.5552 158.379 81.5988 159.29 84.3332C160.202 87.0676 161.406 89.509 162.904 91.6574C164.433 93.8384 166.321 95.8078 168.568 97.5656C168.926 97.8586 169.202 98.0865 169.398 98.2492C169.593 98.4445 169.691 98.6724 169.691 98.9328C169.691 99.356 169.398 99.5676 168.812 99.5676C168.486 99.5676 168.128 99.5025 167.738 99.3723C165.491 98.5259 163.164 97.2727 160.755 95.6125C158.346 93.9849 156.149 91.8527 154.163 89.216C152.178 86.5793 150.534 83.3892 149.232 79.6457C147.962 75.9022 147.327 71.4914 147.327 66.4133Z" fill="#F5F5F5"/>
</svg>
